<?xml version="1.0" encoding="iso-8859-1"?>
<!-- Generator: Adobe Illustrator 19.0.0, SVG Export Plug-In . SVG Version: 6.00 Build 0)  -->
<svg version="1.1" id="Layer_1" xmlns="http://www.w3.org/2000/svg" xmlns:xlink="http://www.w3.org/1999/xlink" x="0px" y="0px"
	 viewBox="0 0 491.525 491.525" style="enable-background:new 0 0 491.525 491.525;" xml:space="preserve">
<path style="fill:#27A2DB;" d="M475.781,0H15.744C7.05,0,0.003,7.048,0.003,15.742v160.656c0,8.694,7.047,15.742,15.742,15.742
	h460.036c8.693,0,15.742-7.048,15.742-15.742V15.742C491.523,7.048,484.474,0,475.781,0z"/>
<g>
	<path style="fill:#FFFFFF;" d="M72.612,57.468c-5.239,0-9.535,1.068-12.887,3.203c-3.365,2.142-5.041,5.37-5.041,9.69
		c0,4.327,1.676,7.629,5.041,9.914c3.352,2.291,10.491,4.761,21.429,7.4c10.925,2.651,19.169,6.363,24.719,11.137
		c5.537,4.786,8.306,11.826,8.306,21.131s-3.501,16.86-10.528,22.658c-7.015,5.798-16.214,8.697-27.612,8.697
		c-16.674,0-31.473-5.748-44.385-17.239l11.286-13.582c10.776,9.361,21.963,14.036,33.559,14.036c5.798,0,10.404-1.242,13.806-3.737
		c3.414-2.489,5.115-5.798,5.115-9.914c0-4.122-1.602-7.325-4.805-9.616c-3.203-2.284-8.728-4.37-16.55-6.251
		c-7.834-1.881-13.793-3.613-17.853-5.19c-4.072-1.577-7.685-3.631-10.839-6.177c-6.307-4.78-9.448-12.105-9.448-21.969
		s3.576-17.468,10.752-22.807c7.164-5.339,16.041-8.008,26.618-8.008c6.816,0,13.582,1.117,20.287,3.352
		c6.717,2.241,12.515,5.394,17.394,9.46l-9.609,13.576c-3.153-2.843-7.424-5.183-12.813-7.015
		C83.165,58.386,77.852,57.468,72.612,57.468z"/>
	<path style="fill:#FFFFFF;" d="M211.354,43.432v16.934h-56.899v28.226h51.101v16.016h-51.101v28.53h58.737v16.934h-76.739V43.432
		H211.354z"/>
	<path style="fill:#FFFFFF;" d="M316.176,43.432h18.002v106.641h-19.529l-60.413-77.807v77.807h-18.002V43.432h18.002l61.94,79.638
		V43.432z"/>
	<path style="fill:#FFFFFF;" d="M444.463,57.393c10.28,9.305,15.407,22.248,15.407,38.829c0,16.574-4.979,29.697-14.948,39.357
		c-9.97,9.665-25.228,14.495-45.763,14.495h-35.396V43.432h36.613C419.496,43.432,434.196,48.088,444.463,57.393z M441.72,96.675
		c0-24.409-13.98-36.613-41.951-36.613h-18.002v73.077h19.989c12.912,0,22.807-3.073,29.673-9.231
		C438.293,117.756,441.72,108.681,441.72,96.675z"/>
</g>
<path style="fill:#F6C358;" d="M401.247,214.811c-4.747,0-9.176,1.279-12.982,3.466v-2.43c0-13.635-11.054-24.688-24.688-24.688
	c-6.332,0-12.089,2.404-16.459,6.324v-2.797c0-13.635-11.053-24.689-24.688-24.689c-7.878,0-14.878,3.703-19.398,9.449v-69.994
	c0-13.635-11.053-24.689-24.688-24.689s-24.688,11.053-24.688,24.689v168.755c-8.557-14.974-22.15-30.255-38.095-36.851
	c-4.281-1.771-8.807-3.176-13.441-3.163c-4.633,0.013-9.416,1.595-12.533,5.022c-4.409,4.849-4.622,12.344-2.596,18.577
	c2.026,6.233,5.918,11.654,9.101,17.383c7.479,13.463,11.053,31.884,15.672,46.576c4.619,14.692,10.677,29.526,21.834,40.143
	c5.111,4.863,11.128,8.674,16.437,13.319c8.043,7.038,14.397,15.994,18.381,25.911h107.331h20.037
	c21.04-17.826,27.204-60.678,30.966-107.571V239.5C426.748,225.865,415.331,214.811,401.247,214.811z"/>
<rect x="244.308" y="403.2" style="fill:#44C4A1;" width="171.781" height="88.325"/>
<circle style="fill:#31978C;" cx="386.563" cy="447.334" r="15.268"/>
<g>
</g>
<g>
</g>
<g>
</g>
<g>
</g>
<g>
</g>
<g>
</g>
<g>
</g>
<g>
</g>
<g>
</g>
<g>
</g>
<g>
</g>
<g>
</g>
<g>
</g>
<g>
</g>
<g>
</g>
</svg>
